# This file uses centimeters as units for non-parametric coordinates.

mtllib ACP_code.mtl
g default
v 10.254446 2.376691 -4.166836
v 10.713550 2.376691 -4.166836
v 10.254446 6.900215 -4.166836
v 10.713550 6.900215 -4.166836
v 10.254446 6.900215 -7.757975
v 10.713550 6.900215 -7.757975
v 10.254446 2.376691 -7.757975
v 10.713550 2.376691 -7.757975
v 10.254446 2.246691 -7.887975
v 10.254446 2.246691 -4.036836
v 9.671817 2.246691 -4.036836
v 9.671817 2.246691 -7.887975
v 10.254446 7.030215 -4.036836
v 9.671817 7.030215 -4.036836
v 10.254446 7.030215 -7.887975
v 9.671817 7.030215 -7.887975
v 10.713550 4.638453 -4.166836
v 10.254446 4.638453 -4.166836
v 10.254446 4.638453 -4.036836
v 9.671817 4.638453 -4.036836
v 9.671817 4.638453 -7.887975
v 10.254446 4.638453 -7.887975
v 10.254446 4.638453 -7.757975
v 10.713550 4.638453 -7.757975
v 10.713550 4.878453 -7.517975
v 10.713550 4.878453 -4.406836
v 10.713550 6.660215 -7.517975
v 10.713550 6.660215 -4.406836
v 10.545818 5.037857 -7.369056
v 10.545818 5.037857 -4.555755
v 10.545818 6.500812 -7.369056
v 10.545818 6.500812 -4.555755
v 10.254446 2.376691 -4.166836
v 10.713550 2.376691 -4.166836
v 10.254446 6.900215 -4.166836
v 10.713550 6.900215 -4.166836
v 10.254446 6.900215 -7.757975
v 10.713550 6.900215 -7.757975
v 10.254446 2.376691 -7.757975
v 10.713550 2.376691 -7.757975
v 10.254446 2.246691 -7.887975
v 10.254446 2.246691 -4.036836
v 9.671817 2.246691 -4.036836
v 9.671817 2.246691 -7.887975
v 10.254446 7.030215 -4.036836
v 9.671817 7.030215 -4.036836
v 10.254446 7.030215 -7.887975
v 9.671817 7.030215 -7.887975
v 10.713550 4.638453 -4.166836
v 10.254446 4.638453 -4.166836
v 10.254446 4.638453 -4.036836
v 9.671817 4.638453 -4.036836
v 9.671817 4.638453 -7.887975
v 10.254446 4.638453 -7.887975
v 10.254446 4.638453 -7.757975
v 10.713550 4.638453 -7.757975
v 10.713550 4.878453 -7.517975
v 10.713550 4.878453 -4.406836
v 10.713550 6.660215 -7.517975
v 10.713550 6.660215 -4.406836
v 10.545818 5.037857 -7.369056
v 10.545818 5.037857 -4.555755
v 10.545818 6.500812 -7.369056
v 10.545818 6.500812 -4.555755
vt 0.922446 0.990000
vt 0.864076 0.990000
vt 0.922446 0.702444
vt 0.864077 0.702444
vt 0.922446 0.414889
vt 0.864076 0.414889
vt 0.990000 0.524359
vt 0.931631 0.524359
vt 0.990000 0.067790
vt 0.931631 0.067790
vt 0.854892 0.702444
vt 0.796522 0.702444
vt 0.854892 0.414889
vt 0.796522 0.414889
vt 0.854892 0.990000
vt 0.796522 0.990000
vt 0.931631 0.533430
vt 0.990000 0.533430
vt 0.931631 0.990000
vt 0.990000 0.990000
vt 0.585113 0.533429
vt 0.585111 0.989998
vt 0.297556 0.533429
vt 0.297555 0.989999
vt 0.267044 0.563943
vt 0.267042 0.959487
vt 0.010000 0.990000
vt 0.040513 0.959488
vt 0.010001 0.533432
vt 0.040514 0.563946
vt 0.526167 0.217953
vt 0.036539 0.217953
vt 0.526167 0.143879
vt 0.036539 0.143879
vt 0.712080 0.990000
vt 0.712080 0.685916
vt 0.786154 0.990000
vt 0.786154 0.685916
vt 0.786154 0.381833
vt 0.712080 0.381833
vt 0.526167 0.302396
vt 0.036540 0.302396
vt 0.526167 0.228322
vt 0.036539 0.228322
vt 0.627637 0.685917
vt 0.627638 0.381834
vt 0.701711 0.685917
vt 0.701712 0.381834
vt 0.627638 0.990000
vt 0.701712 0.990000
vt 0.601651 0.507828
vt 0.601651 0.051259
vt 0.618175 0.524359
vt 0.618181 0.034734
vt 0.314092 0.051210
vt 0.314092 0.034682
vt 0.026532 0.051222
vt 0.026562 0.507782
vt 0.010000 0.034697
vt 0.010036 0.524312
vt 0.314107 0.507786
vt 0.314105 0.524315
vt 0.535957 0.497820
vt 0.535957 0.102278
vt 0.565376 0.478888
vt 0.565376 0.121210
vt 0.051015 0.948985
vt 0.051015 0.722456
vt 0.079532 0.928720
vt 0.079532 0.742722
vt 0.825941 0.010596
vt 0.825941 0.406140
vt 0.796522 0.029528
vt 0.796522 0.387206
vt 0.118134 0.722456
vt 0.118134 0.948985
vt 0.089617 0.742721
vt 0.089617 0.928720
vt 0.922446 0.990000
vt 0.864076 0.990000
vt 0.922446 0.702444
vt 0.864077 0.702444
vt 0.922446 0.414889
vt 0.864076 0.414889
vt 0.990000 0.524359
vt 0.931631 0.524359
vt 0.990000 0.067790
vt 0.931631 0.067790
vt 0.854892 0.702444
vt 0.796522 0.702444
vt 0.854892 0.414889
vt 0.796522 0.414889
vt 0.854892 0.990000
vt 0.796522 0.990000
vt 0.931631 0.533430
vt 0.990000 0.533430
vt 0.931631 0.990000
vt 0.990000 0.990000
vt 0.585113 0.533429
vt 0.585111 0.989998
vt 0.297556 0.533429
vt 0.297555 0.989999
vt 0.267044 0.563943
vt 0.267042 0.959487
vt 0.010000 0.990000
vt 0.040513 0.959488
vt 0.010001 0.533432
vt 0.040514 0.563946
vt 0.526167 0.217953
vt 0.036539 0.217953
vt 0.526167 0.143879
vt 0.036539 0.143879
vt 0.712080 0.990000
vt 0.712080 0.685916
vt 0.786154 0.990000
vt 0.786154 0.685916
vt 0.786154 0.381833
vt 0.712080 0.381833
vt 0.526167 0.302396
vt 0.036540 0.302396
vt 0.526167 0.228322
vt 0.036539 0.228322
vt 0.627637 0.685917
vt 0.627638 0.381834
vt 0.701711 0.685917
vt 0.701712 0.381834
vt 0.627638 0.990000
vt 0.701712 0.990000
vt 0.601651 0.507828
vt 0.601651 0.051259
vt 0.618175 0.524359
vt 0.618181 0.034734
vt 0.314092 0.051210
vt 0.314092 0.034682
vt 0.026532 0.051222
vt 0.026562 0.507782
vt 0.010000 0.034697
vt 0.010036 0.524312
vt 0.314107 0.507786
vt 0.314105 0.524315
vt 0.394216 0.497820
vt 0.036539 0.497820
vt 0.394216 0.311823
vt 0.036539 0.311823
vt 0.535957 0.497820
vt 0.535957 0.102278
vt 0.565376 0.478888
vt 0.565376 0.121210
vt 0.051015 0.948985
vt 0.051015 0.722456
vt 0.079532 0.928720
vt 0.079532 0.742722
vt 0.825941 0.010596
vt 0.825941 0.406140
vt 0.796522 0.029528
vt 0.796522 0.387206
vt 0.118134 0.722456
vt 0.118134 0.948985
vt 0.089617 0.742721
vt 0.089617 0.928720
vn 0.000000 0.000000 1.000000
vn 0.000000 0.000000 1.000000
vn 0.000000 0.000000 1.000000
vn 0.000000 0.000000 1.000000
vn 0.000000 0.000000 1.000000
vn 0.000000 0.000000 1.000000
vn 0.000000 1.000000 0.000000
vn 0.000000 1.000000 0.000000
vn 0.000000 1.000000 0.000000
vn 0.000000 1.000000 0.000000
vn 0.000000 0.000000 -1.000000
vn 0.000000 0.000000 -1.000000
vn 0.000000 0.000000 -1.000000
vn 0.000000 0.000000 -1.000000
vn 0.000000 0.000000 -1.000000
vn 0.000000 0.000000 -1.000000
vn 0.000000 -1.000000 0.000000
vn 0.000000 -1.000000 0.000000
vn 0.000000 -1.000000 0.000000
vn 0.000000 -1.000000 0.000000
vn 1.000000 0.000000 0.000000
vn 1.000000 0.000000 0.000000
vn 1.000000 0.000000 0.000000
vn 1.000000 0.000000 0.000000
vn 1.000000 0.000000 0.000000
vn 1.000000 0.000000 0.000000
vn 1.000000 -0.000000 0.000000
vn 1.000000 -0.000000 0.000000
vn 1.000000 -0.000000 0.000000
vn 1.000000 0.000000 0.000000
vn 0.000000 -1.000000 0.000000
vn 0.000000 -1.000000 0.000000
vn 0.000000 -1.000000 0.000000
vn 0.000000 -1.000000 0.000000
vn 0.000000 0.000000 1.000000
vn 0.000000 0.000000 1.000000
vn 0.000000 0.000000 1.000000
vn 0.000000 0.000000 1.000000
vn 0.000000 0.000000 1.000000
vn 0.000000 0.000000 1.000000
vn 0.000000 1.000000 0.000000
vn 0.000000 1.000000 0.000000
vn 0.000000 1.000000 0.000000
vn 0.000000 1.000000 0.000000
vn 0.000000 0.000000 -1.000000
vn 0.000000 0.000000 -1.000000
vn 0.000000 0.000000 -1.000000
vn 0.000000 0.000000 -1.000000
vn 0.000000 0.000000 -1.000000
vn 0.000000 0.000000 -1.000000
vn 1.000000 -0.000007 0.000000
vn 1.000000 0.000009 0.000000
vn 1.000000 -0.000006 0.000000
vn 1.000000 0.000009 0.000000
vn 1.000000 0.000000 0.000000
vn 1.000000 0.000000 0.000000
vn 1.000000 0.000004 0.000000
vn 1.000000 0.000000 0.000000
vn 1.000000 0.000004 0.000000
vn 1.000000 0.000000 0.000000
vn 1.000000 0.000000 0.000000
vn 1.000000 0.000000 0.000000
vn 0.688886 0.724869 0.000000
vn 0.688883 0.724873 0.000000
vn 0.688886 0.724870 0.000000
vn 0.688882 0.724873 0.000000
vn 0.663925 0.000000 0.747799
vn 0.663926 0.000000 0.747799
vn 0.663925 0.000000 0.747799
vn 0.663926 0.000000 0.747799
vn 0.688884 -0.724872 0.000000
vn 0.688879 -0.724876 0.000000
vn 0.688884 -0.724872 0.000000
vn 0.688879 -0.724876 0.000000
vn 0.663927 0.000000 -0.747798
vn 0.663927 0.000000 -0.747797
vn 0.663927 0.000000 -0.747798
vn 0.663927 0.000000 -0.747797
vn 0.000000 0.000000 1.000000
vn 0.000000 0.000000 1.000000
vn 0.000000 0.000000 1.000000
vn 0.000000 0.000000 1.000000
vn 0.000000 0.000000 1.000000
vn 0.000000 0.000000 1.000000
vn 0.000000 1.000000 0.000000
vn 0.000000 1.000000 0.000000
vn 0.000000 1.000000 0.000000
vn 0.000000 1.000000 0.000000
vn 0.000000 0.000000 -1.000000
vn 0.000000 0.000000 -1.000000
vn 0.000000 0.000000 -1.000000
vn 0.000000 0.000000 -1.000000
vn 0.000000 0.000000 -1.000000
vn 0.000000 0.000000 -1.000000
vn 0.000000 -1.000000 0.000000
vn 0.000000 -1.000000 0.000000
vn 0.000000 -1.000000 0.000000
vn 0.000000 -1.000000 0.000000
vn 1.000000 0.000000 0.000000
vn 1.000000 0.000000 0.000000
vn 1.000000 0.000000 0.000000
vn 1.000000 0.000000 0.000000
vn 1.000000 0.000000 0.000000
vn 1.000000 0.000000 0.000000
vn 1.000000 -0.000000 0.000000
vn 1.000000 -0.000000 0.000000
vn 1.000000 -0.000000 0.000000
vn 1.000000 0.000000 0.000000
vn 0.000000 -1.000000 0.000000
vn 0.000000 -1.000000 0.000000
vn 0.000000 -1.000000 0.000000
vn 0.000000 -1.000000 0.000000
vn 0.000000 0.000000 1.000000
vn 0.000000 0.000000 1.000000
vn 0.000000 0.000000 1.000000
vn 0.000000 0.000000 1.000000
vn 0.000000 0.000000 1.000000
vn 0.000000 0.000000 1.000000
vn 0.000000 1.000000 0.000000
vn 0.000000 1.000000 0.000000
vn 0.000000 1.000000 0.000000
vn 0.000000 1.000000 0.000000
vn 0.000000 0.000000 -1.000000
vn 0.000000 0.000000 -1.000000
vn 0.000000 0.000000 -1.000000
vn 0.000000 0.000000 -1.000000
vn 0.000000 0.000000 -1.000000
vn 0.000000 0.000000 -1.000000
vn 1.000000 -0.000007 0.000000
vn 1.000000 0.000009 0.000000
vn 1.000000 -0.000006 0.000000
vn 1.000000 0.000009 0.000000
vn 1.000000 0.000000 0.000000
vn 1.000000 0.000000 0.000000
vn 1.000000 0.000004 0.000000
vn 1.000000 0.000000 0.000000
vn 1.000000 0.000004 0.000000
vn 1.000000 0.000000 0.000000
vn 1.000000 0.000000 0.000000
vn 1.000000 0.000000 0.000000
vn 1.000000 0.000000 0.000000
vn 1.000000 0.000000 0.000000
vn 1.000000 0.000000 0.000000
vn 1.000000 0.000000 0.000000
vn 0.688886 0.724869 0.000000
vn 0.688883 0.724873 0.000000
vn 0.688886 0.724870 0.000000
vn 0.688882 0.724873 0.000000
vn 0.663925 0.000000 0.747799
vn 0.663926 0.000000 0.747799
vn 0.663925 0.000000 0.747799
vn 0.663926 0.000000 0.747799
vn 0.688884 -0.724872 0.000000
vn 0.688879 -0.724876 0.000000
vn 0.688884 -0.724872 0.000000
vn 0.688879 -0.724876 0.000000
vn 0.663927 0.000000 -0.747798
vn 0.663927 0.000000 -0.747797
vn 0.663927 0.000000 -0.747798
vn 0.663927 0.000000 -0.747797
s 1
g code:pCube14
usemtl initialShadingGroup
f 1/1/1 2/2/2 18/3/3
f 18/3/3 2/2/2 17/4/4
f 18/3/3 17/4/4 3/5/5
f 3/5/5 17/4/4 4/6/6
s 2
f 3/7/7 4/8/8 5/9/9
f 5/9/9 4/8/8 6/10/10
s 3
f 23/11/11 24/12/12 7/13/13
f 7/13/13 24/12/12 8/14/14
f 5/15/15 6/16/16 23/11/11
f 23/11/11 6/16/16 24/12/12
s 4
f 7/17/17 8/18/18 1/19/19
f 1/19/19 8/18/18 2/20/20
s 5
f 2/21/21 8/22/22 17/23/23
f 17/23/23 8/22/22 24/24/24
f 17/23/23 24/24/24 26/25/25
f 26/25/25 24/24/24 25/26/26
f 24/24/24 6/27/27 25/26/26
f 25/26/26 6/27/27 27/28/28
f 6/27/27 4/29/29 27/28/28
f 27/28/28 4/29/29 28/30/30
f 4/29/29 17/23/23 28/30/30
f 28/30/30 17/23/23 26/25/25
s 6
f 9/31/31 10/32/32 12/33/33
f 12/33/33 10/32/32 11/34/34
s 7
f 10/35/35 19/36/36 11/37/37
f 11/37/37 19/36/36 20/38/38
f 20/38/38 19/36/36 14/39/39
f 14/39/39 19/36/36 13/40/40
s 8
f 13/41/41 15/42/42 14/43/43
f 14/43/43 15/42/42 16/44/44
s 9
f 22/45/45 9/46/46 21/47/47
f 21/47/47 9/46/46 12/48/48
f 15/49/49 22/45/45 16/50/50
f 16/50/50 22/45/45 21/47/47
s 10
f 7/51/51 1/52/52 9/53/53
f 9/53/53 1/52/52 10/54/54
f 18/55/55 19/56/56 1/52/52
f 1/52/52 19/56/56 10/54/54
f 3/57/57 5/58/58 13/59/59
f 13/59/59 5/58/58 15/60/60
f 23/61/61 7/51/51 22/62/62
f 22/62/62 7/51/51 9/53/53
f 18/55/55 3/57/57 19/56/56
f 19/56/56 3/57/57 13/59/59
f 23/61/61 22/62/62 5/58/58
f 5/58/58 22/62/62 15/60/60
s 13
f 26/63/63 25/64/64 30/65/65
f 30/65/65 25/64/64 29/66/66
s 14
f 25/67/67 27/68/68 29/69/69
f 29/69/69 27/68/68 31/70/70
s 15
f 27/71/71 28/72/72 31/73/73
f 31/73/73 28/72/72 32/74/74
s 16
f 28/75/75 26/76/76 32/77/77
f 32/77/77 26/76/76 30/78/78
s 17
f 33/79/79 34/80/80 50/81/81
f 50/81/81 34/80/80 49/82/82
f 50/81/81 49/82/82 35/83/83
f 35/83/83 49/82/82 36/84/84
s 18
f 35/85/85 36/86/86 37/87/87
f 37/87/87 36/86/86 38/88/88
s 19
f 55/89/89 56/90/90 39/91/91
f 39/91/91 56/90/90 40/92/92
f 37/93/93 38/94/94 55/89/89
f 55/89/89 38/94/94 56/90/90
s 20
f 39/95/95 40/96/96 33/97/97
f 33/97/97 40/96/96 34/98/98
s 21
f 34/99/99 40/100/100 49/101/101
f 49/101/101 40/100/100 56/102/102
f 49/101/101 56/102/102 58/103/103
f 58/103/103 56/102/102 57/104/104
f 56/102/102 38/105/105 57/104/104
f 57/104/104 38/105/105 59/106/106
f 38/105/105 36/107/107 59/106/106
f 59/106/106 36/107/107 60/108/108
f 36/107/107 49/101/101 60/108/108
f 60/108/108 49/101/101 58/103/103
s 22
f 41/109/109 42/110/110 44/111/111
f 44/111/111 42/110/110 43/112/112
s 23
f 42/113/113 51/114/114 43/115/115
f 43/115/115 51/114/114 52/116/116
f 52/116/116 51/114/114 46/117/117
f 46/117/117 51/114/114 45/118/118
s 24
f 45/119/119 47/120/120 46/121/121
f 46/121/121 47/120/120 48/122/122
s 25
f 54/123/123 41/124/124 53/125/125
f 53/125/125 41/124/124 44/126/126
f 47/127/127 54/123/123 48/128/128
f 48/128/128 54/123/123 53/125/125
s 26
f 39/129/129 33/130/130 41/131/131
f 41/131/131 33/130/130 42/132/132
f 50/133/133 51/134/134 33/130/130
f 33/130/130 51/134/134 42/132/132
f 35/135/135 37/136/136 45/137/137
f 45/137/137 37/136/136 47/138/138
f 55/139/139 39/129/129 54/140/140
f 54/140/140 39/129/129 41/131/131
f 50/133/133 35/135/135 51/134/134
f 51/134/134 35/135/135 45/137/137
f 55/139/139 54/140/140 37/136/136
f 37/136/136 54/140/140 47/138/138
s 29
usemtl phong1SG
f 62/141/141 61/142/142 64/143/143
f 64/143/143 61/142/142 63/144/144
s 30
usemtl initialShadingGroup
f 58/145/145 57/146/146 62/147/147
f 62/147/147 57/146/146 61/148/148
s 31
f 57/149/149 59/150/150 61/151/151
f 61/151/151 59/150/150 63/152/152
s 32
f 59/153/153 60/154/154 63/155/155
f 63/155/155 60/154/154 64/156/156
s 33
f 60/157/157 58/158/158 64/159/159
f 64/159/159 58/158/158 62/160/160
